<?xml version="1.0" encoding="utf-8"?>
<?xml-stylesheet type="text/xsl" href="rss1.xsl"?>
<rss version="2.0" xmlns:atom="http://www.w3.org/2005/Atom" xmlns:content="http://purl.org/rss/1.0/modules/content/" xmlns:dc="http://purl.org/dc/elements/1.1/" xmlns:media="http://search.yahoo.com/mrss/">
<channel>
 <title>Getty</title>
 <link>http://www.gettyimg.com/</link>
 <atom:link href="http://www.gettyimg.com/" rel="self" type="application/rss+xml" />

 
                <item>
                <title><![CDATA[【HD Live Performances】FEED - Madonna - MDNA Tour Live at Paris Olympia 2012 1080i HDTV FEED MP2 MPEG2]]></title>
                <link><![CDATA[https://sharemania.us/threads/madonna-mdna-tour-live-at-paris-olympia-2012-1080i-hdtv-feed-mp2-mpeg2.243963/]]></link>
                <description><![CDATA[<article>
<blockquote class="messageText SelectQuoteContainer ugc baseHtml">
<div style="text-align: center"><img src="https://i.ibb.co/D1WBjH4/da39323b2328404d6bb5a44797b167f1.jpg" class="bbCodeImage LbImage" alt="[​IMG]" data-url="https://i.ibb.co/D1WBjH4/da39323b2328404d6bb5a44797b167f1.jpg" style=""> ​</div><img src="https://i.ibb.co/6HBHPBj/Madonna-Live-at-Paris-Olympia-2012-1080i-HDTV-FEED-MP2-MPEG2-No-GRP-ts.png" class="bbCodeImage LbImage" alt="[​IMG]" data-url="https://i.ibb.co/6HBHPBj/Madonna-Live-at-Paris-Olympia-2012-1080i-HDTV-FEED-MP2-MPEG2-No-GRP-ts.png" style=""><br>
<div class="ToggleTriggerAnchor bbCodeSpoilerContainer">
<button type="button" class="button bbCodeSpoilerButton ToggleTrigger Tooltip JsOnly" data-target="> .SpoilerTarget"><span>Spoiler: <span class="SpoilerTitle">MediaInfo</span></span></button>
<div class="SpoilerTarget bbCodeSpoilerText">
<div class="bbCodeBlock bbCodeCode">
<div class="type">Code:</div>
<pre>General
Format                                   : MPEG-TS
File size                                : 9.73 GiB
Duration                                 : 51 min 33 s
Overall bit rate mode                    : Variable
Overall bit rate                         : 27.0 Mb/s
Frame rate                               : 25.000 FPS

Video
ID                                       : 33 (0x21)
Menu ID                                  : 1 (0x1)
Format                                   : MPEG Video
Format version                           : Version 2
Format profile                           : 4:2:2@High
Format settings                          : BVOP
Format settings, BVOP                    : Yes
Format settings, Matrix                  : Default
Format settings, GOP                     : Variable
Format settings, picture structure       : Frame
Codec ID                                 : 2
Duration                                 : 51 min 32 s
Bit rate mode                            : Variable
Bit rate                                 : 25.4 Mb/s
Maximum bit rate                         : 26.7 Mb/s
Width                                    : 1 920 pixels
Height                                   : 1 080 pixels
Display aspect ratio                     : 16:9
Active Format Description                : Full frame 16:9 image
Frame rate                               : 25.000 FPS
Color space                              : YUV
Chroma subsampling                       : 4:2:2
Bit depth                                : 8 bits
Scan type                                : Interlaced
Scan order                               : Top Field First
Compression mode                         : Lossy
Bits/(Pixel*Frame)                       : 0.491
Time code of first frame                 : 00:00:00:00
Time code source                         : Group of pictures header
GOP, Open/Closed                         : Open
Stream size                              : 9.16 GiB (94%)

Audio
ID                                       : 34 (0x22)
Menu ID                                  : 1 (0x1)
Format                                   : MPEG Audio
Format version                           : Version 1
Format profile                           : Layer 2
Codec ID                                 : 3
Duration                                 : 51 min 32 s
Bit rate mode                            : Constant
Bit rate                                 : 256 kb/s
Channel(s)                               : 2 channels
Sampling rate                            : 48.0 kHz
Frame rate                               : 41.667 FPS (1152 SPF)
Compression mode                         : Lossy
Delay relative to video                  : 22 ms
Stream size                              : 94.4 MiB (1%)
Language                                 : English
</pre>
</div></div>
</div>
<div class="bbCodeBlock bbCodeVfcHH HiddenContent">
<div class="attribution type">Hidden Content:</div>
<blockquote>You must reply before you can see the hidden data contained here.</blockquote>
</div>
<div class="messageTextEndMarker">&nbsp;</div>
</blockquote>
</article>]]></description>
                <author><![CDATA[itunesboy]]></author>
                </item>

                </channel></rss>